<svg width="38" height="48" viewBox="0 0 38 48" fill="none" xmlns="http://www.w3.org/2000/svg">
<path d="M4.74782 20.2329C7.29743 20.2329 9.36429 18.1661 9.36429 15.6165C9.36429 13.0669 7.29743 11 4.74782 11C2.19821 11 0.131348 13.0669 0.131348 15.6165C0.131348 18.1661 2.19821 20.2329 4.74782 20.2329Z" fill="black"/>
<path d="M0 22.1436V30.6754V37.596V47.615H4.3456V37.596H5.1505V47.615H9.49609V37.596V30.6754V22.1436H0Z" fill="black"/>
<path d="M18.7478 20.2329C21.2974 20.2329 23.3643 18.1661 23.3643 15.6165C23.3643 13.0669 21.2974 11 18.7478 11C16.1982 11 14.1313 13.0669 14.1313 15.6165C14.1313 18.1661 16.1982 20.2329 18.7478 20.2329Z" fill="black"/>
<path d="M14 22.1436V30.6754V37.596V47.615H18.3456V37.596H19.1505V47.615H23.4961V37.596V30.6754V22.1436H14Z" fill="black"/>
<path d="M32.7478 20.2329C35.2974 20.2329 37.3643 18.1661 37.3643 15.6165C37.3643 13.0669 35.2974 11 32.7478 11C30.1982 11 28.1313 13.0669 28.1313 15.6165C28.1313 18.1661 30.1982 20.2329 32.7478 20.2329Z" fill="black"/>
<path d="M28 22.1436V30.6754V37.596V47.615H32.3456V37.596H33.1505V47.615H37.4961V37.596V30.6754V22.1436H28Z" fill="black"/>
<path d="M21.8839 1.50357L20.4964 0.116119L18.5 2.11255L16.5035 0.116119L15.1161 1.50357L17.1125 3.5L15.1161 5.49643L16.5035 6.88389L18.5 4.88746L20.4964 6.88389L21.8839 5.49643L19.8874 3.5L21.8839 1.50357Z" fill="black"/>
<path d="M8.7576 1.46371L7.32118 0.0272827L3.83856 3.50661L2.46871 2.13676L1.02533 3.56997L3.83833 6.38298L8.7576 1.46371Z" fill="black"/>
<path d="M36.7323 1.46371L35.2959 0.0272827L31.8132 3.50661L30.4434 2.13676L29 3.56997L31.813 6.38298L36.7323 1.46371Z" fill="black"/>
</svg>
